<svg width="71" height="70" viewBox="0 0 71 70" fill="none" xmlns="http://www.w3.org/2000/svg">
<ellipse cx="35.8165" cy="35" rx="34.9096" ry="35" fill="#E0FF00"/>
<path d="M46.4577 46.25H40.1347L43.2972 39.9088L46.4577 46.25ZM43.2972 36.875C43.1234 36.8749 42.953 36.9234 42.8052 37.015C42.6574 37.1065 42.5379 37.2376 42.4603 37.3934L37.7849 46.7684C37.7136 46.9114 37.68 47.0703 37.6872 47.2299C37.6944 47.3896 37.7422 47.5447 37.8261 47.6807C37.9099 47.8166 38.0271 47.9288 38.1663 48.0065C38.3056 48.0843 38.4624 48.1251 38.6218 48.125H47.9726C48.127 48.125 48.279 48.0867 48.415 48.0135C48.5511 47.9403 48.6669 47.8344 48.7522 47.7053C48.8375 47.5763 48.8896 47.428 48.9038 47.2739C48.9181 47.1197 48.894 46.9644 48.8338 46.8219L44.1341 37.3934C44.0564 37.2376 43.9369 37.1065 43.7891 37.015C43.6413 36.9234 43.4709 36.8749 43.2972 36.875Z" fill="black"/>
<path d="M38.3843 41.375C37.132 42.052 35.7423 42.4335 34.3207 42.4906C32.8992 42.5477 31.4834 42.2788 30.1812 41.7044C28.879 41.1299 27.7247 40.2651 26.8063 39.1759C25.8878 38.0866 25.2294 36.8015 24.8812 35.4185C24.5329 34.0356 24.5041 32.5912 24.7968 31.1953C25.0895 29.7995 25.6961 28.489 26.5703 27.3637C27.4445 26.2385 28.5634 25.328 29.8416 24.7018C31.1198 24.0756 32.5237 23.75 33.9464 23.75V33.125L39.6476 38.8409L40.7884 36.5534C41.0202 36.0855 41.3781 35.692 41.8215 35.4175C42.2648 35.1429 42.776 34.9983 43.2972 35H44.999C45.3809 32.7281 45.0574 30.3933 44.0723 28.3118C43.0872 26.2302 41.488 24.5023 39.4912 23.3619C37.4944 22.2216 35.1963 21.7238 32.9081 21.9359C30.6198 22.148 28.4518 23.0598 26.6974 24.5479C24.943 26.036 23.6869 28.0286 23.0991 30.256C22.5114 32.4833 22.6204 34.8379 23.4113 37.0012C24.2022 39.1644 25.6368 41.0318 27.5211 42.3507C29.4054 43.6696 31.6484 44.3762 33.9464 44.375C35.0211 44.3737 36.0901 44.2168 37.12 43.9091L38.3843 41.375Z" fill="black"/>
</svg>
