<svg width="70" height="70" viewBox="0 0 70 70" fill="none" xmlns="http://www.w3.org/2000/svg">
<circle cx="35" cy="35" r="35" fill="black"/>
<path d="M25.625 22.8125V47.1875H40.625V45.3125H27.5V24.6875H36.875V30.3125H42.5V32.1875H44.375V29L44.0938 28.7188L38.4688 23.0937L38.1875 22.8125H25.625ZM38.75 26L41.1875 28.4375H38.75V26ZM29.375 32.1875V34.0625H40.625V32.1875H29.375ZM45.3125 34.0625V35.9375C43.7188 36.2188 42.5 37.5312 42.5 39.2188C42.5 41.0938 43.9062 42.5 45.7812 42.5H46.7188C47.4688 42.5 48.125 43.1562 48.125 43.9062C48.125 44.6562 47.4688 45.3125 46.7188 45.3125H43.4375V47.1875H45.3125V49.0625H47.1875V47.1875C48.7812 46.9062 50 45.5938 50 43.9062C50 42.0312 48.5938 40.625 46.7188 40.625H45.7812C45.0312 40.625 44.375 39.9688 44.375 39.2188C44.375 38.4688 45.0312 37.8125 45.7812 37.8125H49.0625V35.9375H47.1875V34.0625H45.3125ZM29.375 36.875V38.75H35.9375V36.875H29.375ZM37.8125 36.875V38.75H40.625V36.875H37.8125ZM29.375 40.625V42.5H35.9375V40.625H29.375ZM37.8125 40.625V42.5H40.625V40.625H37.8125Z" fill="white"/>
</svg>
