<svg width="70" height="70" viewBox="0 0 70 70" fill="none" xmlns="http://www.w3.org/2000/svg">
<ellipse cx="34.9096" cy="35" rx="34.9096" ry="35" fill="black"/>
<path d="M42.5 39.6875H44.375V44.375H42.5V39.6875ZM38.75 35H40.625V44.375H38.75V35ZM30.3125 44.375C29.0698 44.3735 27.8783 43.8792 26.9996 43.0004C26.1208 42.1217 25.6265 40.9302 25.625 39.6875H27.5C27.5 40.2438 27.665 40.7875 27.974 41.25C28.283 41.7126 28.7223 42.073 29.2362 42.2859C29.7501 42.4988 30.3156 42.5545 30.8612 42.446C31.4068 42.3374 31.9079 42.0696 32.3012 41.6762C32.6946 41.2829 32.9624 40.7818 33.071 40.2362C33.1795 39.6906 33.1238 39.1251 32.9109 38.6112C32.698 38.0973 32.3376 37.658 31.875 37.349C31.4125 37.0399 30.8688 36.875 30.3125 36.875V35C31.5557 35 32.748 35.4939 33.6271 36.3729C34.5061 37.252 35 38.4443 35 39.6875C35 40.9307 34.5061 42.123 33.6271 43.0021C32.748 43.8811 31.5557 44.375 30.3125 44.375Z" fill="white"/>
<path d="M46.25 21.875H23.75C23.2529 21.8755 22.7762 22.0732 22.4247 22.4247C22.0732 22.7762 21.8755 23.2529 21.875 23.75V46.25C21.8755 46.7471 22.0732 47.2238 22.4247 47.5753C22.7762 47.9268 23.2529 48.1245 23.75 48.125H46.25C46.7471 48.1243 47.2235 47.9265 47.575 47.575C47.9265 47.2235 48.1243 46.7471 48.125 46.25V23.75C48.1245 23.2529 47.9268 22.7762 47.5753 22.4247C47.2238 22.0732 46.7471 21.8755 46.25 21.875ZM46.25 30.3125H33.125V23.75H46.25V30.3125ZM31.25 23.75V30.3125H23.75V23.75H31.25ZM23.75 46.25V32.1875H46.25L46.2519 46.25H23.75Z" fill="white"/>
</svg>
