<svg width="70" height="70" viewBox="0 0 70 70" fill="none" xmlns="http://www.w3.org/2000/svg">
<rect width="70" height="70" rx="15" fill="black"/>
<path d="M36.25 37.5625V37.5H25.3163C24.947 37.4998 24.5813 37.5724 24.2401 37.7136C23.8988 37.8548 23.5888 38.0619 23.3276 38.323C23.0664 38.584 22.8592 38.894 22.7179 39.2351C22.5765 39.5763 22.5038 39.942 22.5038 40.3113V41.0338C22.5038 42.1488 22.9038 43.2288 23.6288 44.0775C25.585 46.37 28.5675 47.5025 32.5 47.5025C32.9475 47.5025 33.3825 47.4863 33.8038 47.4575C33.7677 47.2654 33.7497 47.0704 33.75 46.875V45.5813C33.3488 45.6113 32.9325 45.6263 32.5 45.6263C29.0775 45.6263 26.62 44.6938 25.0538 42.86C24.6182 42.3507 24.3789 41.7026 24.3788 41.0325V40.3113C24.3788 40.0626 24.4775 39.8242 24.6533 39.6483C24.8292 39.4725 25.0676 39.3738 25.3163 39.3738H34.01C34.211 38.9145 34.5194 38.5103 34.9093 38.1951C35.2991 37.8799 35.7589 37.663 36.25 37.5625ZM32.5 22.5063C33.3208 22.5063 34.1335 22.6679 34.8918 22.982C35.6501 23.2961 36.3391 23.7565 36.9194 24.3368C37.4998 24.9172 37.9602 25.6062 38.2743 26.3645C38.5883 27.1228 38.75 27.9355 38.75 28.7563C38.75 29.577 38.5883 30.3897 38.2743 31.148C37.9602 31.9063 37.4998 32.5953 36.9194 33.1757C36.3391 33.756 35.6501 34.2164 34.8918 34.5305C34.1335 34.8446 33.3208 35.0063 32.5 35.0063C30.8424 35.0063 29.2527 34.3478 28.0806 33.1757C26.9085 32.0036 26.25 30.4139 26.25 28.7563C26.25 27.0987 26.9085 25.5089 28.0806 24.3368C29.2527 23.1647 30.8424 22.5063 32.5 22.5063ZM32.5 24.3813C31.9255 24.3813 31.3566 24.4944 30.8258 24.7143C30.295 24.9341 29.8127 25.2564 29.4064 25.6627C29.0002 26.0689 28.6779 26.5512 28.458 27.082C28.2382 27.6128 28.125 28.1817 28.125 28.7563C28.125 29.3308 28.2382 29.8997 28.458 30.4305C28.6779 30.9613 29.0002 31.4436 29.4064 31.8498C29.8127 32.2561 30.295 32.5784 30.8258 32.7982C31.3566 33.0181 31.9255 33.1313 32.5 33.1313C33.6603 33.1313 34.7731 32.6703 35.5936 31.8498C36.4141 31.0294 36.875 29.9166 36.875 28.7563C36.875 27.5959 36.4141 26.4831 35.5936 25.6627C34.7731 24.8422 33.6603 24.3813 32.5 24.3813ZM37.5 38.75H36.875C36.3777 38.75 35.9008 38.9475 35.5492 39.2992C35.1975 39.6508 35 40.1277 35 40.625V46.875C35 47.3723 35.1975 47.8492 35.5492 48.2008C35.9008 48.5525 36.3777 48.75 36.875 48.75H46.875C47.3723 48.75 47.8492 48.5525 48.2008 48.2008C48.5525 47.8492 48.75 47.3723 48.75 46.875V40.625C48.75 40.1277 48.5525 39.6508 48.2008 39.2992C47.8492 38.9475 47.3723 38.75 46.875 38.75H46.25V37.1875C46.25 36.6073 46.0195 36.0509 45.6093 35.6407C45.1991 35.2305 44.6427 35 44.0625 35H39.6875C39.1073 35 38.5509 35.2305 38.1407 35.6407C37.7305 36.0509 37.5 36.6073 37.5 37.1875V38.75ZM39.375 37.1875C39.375 37.1046 39.4079 37.0251 39.4665 36.9665C39.5251 36.9079 39.6046 36.875 39.6875 36.875H44.0625C44.1454 36.875 44.2249 36.9079 44.2835 36.9665C44.3421 37.0251 44.375 37.1046 44.375 37.1875V38.75H39.375V37.1875Z" fill="white"/>
</svg>
