<svg width="70" height="70" viewBox="0 0 70 70" fill="none" xmlns="http://www.w3.org/2000/svg">
<rect width="70" height="70" rx="15" fill="black"/>
<path d="M21.875 45.5H48.125V47.25H21.875V45.5ZM45.3125 30.625C45.5611 30.625 45.7996 30.5328 45.9754 30.3687C46.1512 30.2046 46.25 29.9821 46.25 29.75V27.125C46.2499 26.9452 46.1905 26.7697 46.0798 26.6226C45.969 26.4754 45.8124 26.3636 45.6313 26.3025L35.3188 22.8025C35.1128 22.733 34.8872 22.733 34.6812 22.8025L24.3687 26.3025C24.1876 26.3636 24.031 26.4754 23.9202 26.6226C23.8095 26.7697 23.7501 26.9452 23.75 27.125V29.75C23.75 29.9821 23.8488 30.2046 24.0246 30.3687C24.2004 30.5328 24.4389 30.625 24.6875 30.625H25.625V42H23.75V43.75H46.25V42H44.375V30.625H45.3125ZM25.625 27.7375L35 24.5525L44.375 27.7375V28.875H25.625V27.7375ZM36.875 42H33.125V30.625H36.875V42ZM27.5 30.625H31.25V42H27.5V30.625ZM42.5 42H38.75V30.625H42.5V42Z" fill="white"/>
</svg>
